<svg width="18" height="11" viewBox="0 0 18 11" fill="none" xmlns="http://www.w3.org/2000/svg">
<path d="M9.54301 9.93043L17.508 1.57094C17.641 1.43145 17.7151 1.24614 17.7151 1.05344C17.7151 0.860729 17.641 0.675419 17.508 0.535936L17.499 0.526936C17.4345 0.459083 17.357 0.405053 17.271 0.368133C17.185 0.331212 17.0923 0.312173 16.9988 0.312173C16.9052 0.312173 16.8126 0.331212 16.7266 0.368133C16.6406 0.405053 16.563 0.459083 16.4985 0.526935L8.99851 8.39893L1.50151 0.526934C1.43705 0.459082 1.35946 0.405052 1.27346 0.368131C1.18746 0.331211 1.09485 0.312171 1.00126 0.312171C0.907668 0.312171 0.815058 0.33121 0.729058 0.368131C0.643059 0.405052 0.565468 0.459081 0.501008 0.526934L0.492007 0.535935C0.35904 0.675417 0.284863 0.860728 0.284863 1.05343C0.284863 1.24614 0.35904 1.43145 0.492007 1.57093L8.45701 9.93043C8.52705 10.004 8.6113 10.0625 8.70464 10.1025C8.79797 10.1425 8.89846 10.1631 9.00001 10.1631C9.10155 10.1631 9.20204 10.1425 9.29538 10.1025C9.38872 10.0625 9.47296 10.004 9.54301 9.93043Z" fill="black"/>
</svg>
